<svg width="80" height="80" viewBox="0 0 80 80" fill="none" xmlns="http://www.w3.org/2000/svg">
<path d="M39.9999 0.000488275L40.0076 39.9606L55.3071 3.04526L40.0221 39.9668L68.2837 11.7161L40.0331 39.9777L76.9546 24.6928L40.0392 39.9923L79.9994 40L40.0392 40.0077L76.9546 55.3072L40.0331 40.0223L68.2837 68.2838L40.0221 40.0332L55.3071 76.9547L40.0076 40.0394L39.9999 79.9995L39.9921 40.0394L24.6926 76.9547L39.9776 40.0332L11.716 68.2838L39.9667 40.0223L3.04514 55.3072L39.9605 40.0077L0.000366206 40L39.9605 39.9923L3.04514 24.6928L39.9667 39.9777L11.716 11.7161L39.9776 39.9668L24.6926 3.04526L39.9921 39.9606L39.9999 0.000488275Z" fill="#C8FEC7" stroke="#C8FEC7" stroke-width="4"/>
</svg>
